<svg width="30.000000" height="30.000000" viewBox="0 0 30 30" fill="none" xmlns="http://www.w3.org/2000/svg" xmlns:xlink="http://www.w3.org/1999/xlink">
	<desc>
			Created with Pixso.
	</desc>
	<defs>
		<clipPath id="clip1_295">
			<rect id="accept-check-good-mark-ok-tick-svgrepo-com 1" width="30.000000" height="30.000000" fill="white" fill-opacity="0"/>
		</clipPath>
	</defs>
	<rect id="accept-check-good-mark-ok-tick-svgrepo-com 1" width="30.000000" height="30.000000" fill="#FFFFFF" fill-opacity="0"/>
	<g clip-path="url(#clip1_295)">
		<path id="check" d="M15 30C12.0333 30 9.13318 29.1203 6.66644 27.472C4.19971 25.8238 2.27713 23.4812 1.14182 20.7403C0.00650024 17.9994 -0.290558 14.9834 0.288208 12.0736C0.867004 9.16393 2.29562 6.4912 4.3934 4.3934C6.49121 2.29562 9.16394 0.867004 12.0736 0.288223C14.9834 -0.290543 17.9994 0.00648499 20.7403 1.1418C23.4812 2.27711 25.8239 4.19971 27.472 6.66644C29.1203 9.13318 30 12.0333 30 15C30 18.9783 28.4196 22.7936 25.6066 25.6066C22.7936 28.4196 18.9783 30 15 30ZM6.50699 18.3825C6.18445 18.0564 6.00351 17.6162 6.00351 17.1575C6.00351 16.6988 6.18445 16.2586 6.50699 15.9325L7.39001 15.0545C7.54019 14.903 7.71924 14.7832 7.9166 14.7022C8.11398 14.6212 8.32562 14.5807 8.53891 14.5831C8.75223 14.5854 8.96289 14.6307 9.15839 14.716C9.35391 14.8014 9.53027 14.9252 9.677 15.08L11.237 16.6985C11.3114 16.777 11.401 16.8395 11.5003 16.8822C11.5996 16.9249 11.7066 16.947 11.8148 16.947C11.9229 16.947 12.0299 16.9249 12.1292 16.8822C12.2285 16.8395 12.3181 16.777 12.3925 16.6985L20.3425 8.50349C20.4903 8.34756 20.6682 8.22314 20.8653 8.1377C21.0624 8.05226 21.2748 8.00757 21.4896 8.0063C21.7045 8.00505 21.9174 8.04724 22.1155 8.13036C22.3136 8.21349 22.4929 8.33583 22.6425 8.49001L23.5 9.35699C23.8147 9.68178 23.9907 10.1163 23.9907 10.5685C23.9907 11.0207 23.8147 11.4552 23.5 11.78L12.9455 22.5055C12.7982 22.658 12.622 22.7795 12.4271 22.8629C12.2322 22.9464 12.0226 22.9901 11.8106 22.9915C11.5987 22.9929 11.3885 22.952 11.1926 22.8711C10.9966 22.7902 10.8188 22.671 10.6695 22.5205L6.50699 18.3825Z" fill="#58B767" fill-opacity="1.000000" fill-rule="evenodd"/>
	</g>
</svg>
