<svg width="64.010231" height="269.652405" viewBox="0 0 64.0102 269.652" fill="none" xmlns="http://www.w3.org/2000/svg" xmlns:xlink="http://www.w3.org/1999/xlink">
	<desc>
			Created with Pixso.
	</desc>
	<defs/>
	<path id="Arrow 2" d="M54.0102 12.4823L55.0103 153.482L54.0102 229.533L54.0103 241Q54.0103 247.006 49.7633 251.253Q45.5163 255.5 39.5102 255.5L26.5102 255.5L2.51022 255.5L2.51022 250.5L26.5102 250.5L39.5102 250.5Q43.4453 250.5 46.2278 247.718Q49.0103 244.935 49.0103 241L49.0106 229.467L50.0104 153.518L49.0103 12.5177L54.0102 12.4823ZM50.2995 24.9412Q49.9941 24.9115 49.6905 24.8668Q49.3869 24.8222 49.0859 24.7627Q48.7848 24.7031 48.4871 24.6289Q48.1893 24.5547 47.8956 24.466Q47.6018 24.3772 47.3128 24.2742Q47.0238 24.1712 46.7401 24.0541Q46.4565 23.937 46.1789 23.8061Q45.9014 23.6752 45.6306 23.5309Q45.3598 23.3865 45.0964 23.2291Q44.833 23.0716 44.5777 22.9015Q44.3224 22.7313 44.0757 22.5488Q43.829 22.3663 43.5916 22.1719Q43.3541 21.9775 43.1265 21.7717Q42.8989 21.5659 42.6817 21.3491Q42.4645 21.1324 42.2581 20.9053Q42.0518 20.6781 41.8568 20.4412Q41.6619 20.2042 41.4788 19.9579Q41.2957 19.7117 41.1249 19.4567Q40.9542 19.2018 40.7961 18.9388Q40.638 18.6758 40.4931 18.4053Q40.3481 18.1348 40.2166 17.8576Q40.0851 17.5804 39.9673 17.297Q39.8495 17.0136 39.7458 16.7248Q39.6421 16.436 39.5527 16.1425Q39.4633 15.8489 39.3884 15.5514Q39.3135 15.2538 39.2532 14.9529Q39.193 14.652 39.1477 14.3485Q39.1023 14.045 39.0718 13.7397Q39.0414 13.4344 39.026 13.1279Q39.0106 12.8214 39.0102 12.5146Q39.0099 12.2077 39.0246 11.9012Q39.0393 11.5947 39.069 11.2893Q39.0987 10.9839 39.1434 10.6803Q39.1881 10.3767 39.2476 10.0757Q39.3071 9.77463 39.3813 9.47688Q39.4555 9.17913 39.5442 8.88538Q39.633 8.59163 39.736 8.30259Q39.8391 8.01355 39.9562 7.72992Q40.0733 7.44628 40.2041 7.16873Q40.335 6.89118 40.4793 6.62039Q40.6237 6.3496 40.7811 6.08621Q40.9386 5.82283 41.1088 5.56749Q41.2789 5.31214 41.4615 5.06546Q41.644 4.81878 41.8384 4.58135Q42.0327 4.34392 42.2386 4.11631Q42.4444 3.8887 42.6611 3.67147Q42.8778 3.45424 43.105 3.2479Q43.3321 3.04156 43.5691 2.84662Q43.806 2.65167 44.0523 2.46859Q44.2985 2.28551 44.5535 2.11473Q44.8084 1.94395 45.0714 1.78589Q45.3345 1.62782 45.6049 1.48286Q45.8754 1.33789 46.1526 1.20637Q46.4299 1.07485 46.7132 0.957088Q46.9966 0.839328 47.2854 0.735614Q47.5742 0.631901 47.8677 0.542482Q48.1613 0.453064 48.4588 0.378157Q48.7564 0.30325 49.0573 0.243035Q49.3582 0.182819 49.6617 0.13744Q49.9652 0.092061 50.2705 0.061628Q50.5759 0.0311949 50.8823 0.015781Q51.1888 0.000367139 51.4957 9.62978e-06Q51.8025 -0.00034788 52.109 0.0143518Q52.4155 0.0290515 52.7209 0.058773Q53.0264 0.0884946 53.3299 0.133166Q53.6335 0.177838 53.9346 0.237353Q54.2356 0.296867 54.5333 0.371081Q54.8311 0.445294 55.1248 0.534028Q55.4186 0.622762 55.7076 0.725803Q55.9967 0.828844 56.2803 0.945943Q56.5639 1.06304 56.8415 1.19392Q57.119 1.32479 57.3898 1.46913Q57.6606 1.61347 57.924 1.77092Q58.1874 1.92836 58.4427 2.09855Q58.6981 2.26873 58.9448 2.45124Q59.1914 2.63375 59.4289 2.82814Q59.6663 3.02253 59.8939 3.22834Q60.1215 3.43415 60.3388 3.65088Q60.556 3.86761 60.7623 4.09473Q60.9687 4.32186 61.1636 4.55884Q61.3586 4.79581 61.5416 5.04207Q61.7247 5.28833 61.8955 5.54327Q62.0663 5.79822 62.2243 6.06123Q62.3824 6.32425 62.5274 6.59471Q62.6723 6.86516 62.8039 7.14241Q62.9354 7.41965 63.0531 7.70301Q63.1709 7.98637 63.2746 8.27517Q63.3783 8.56397 63.4677 8.85751Q63.5572 9.15105 63.6321 9.44863Q63.707 9.7462 63.7672 10.0471Q63.8274 10.348 63.8728 10.6515Q63.9182 10.955 63.9486 11.2603Q63.979 11.5656 63.9944 11.8721Q64.0099 12.1786 64.0102 12.4854Q64.0106 12.7923 63.9959 13.0988Q63.9812 13.4053 63.9515 13.7107Q63.9217 14.0161 63.8771 14.3197Q63.8324 14.6233 63.7729 14.9244Q63.7134 15.2254 63.6391 15.5231Q63.5649 15.8209 63.4762 16.1146Q63.3875 16.4084 63.2844 16.6974Q63.1814 16.9865 63.0643 17.2701Q62.9472 17.5537 62.8163 17.8313Q62.6854 18.1088 62.5411 18.3796Q62.3968 18.6504 62.2393 18.9138Q62.0819 19.1772 61.9117 19.4325Q61.7415 19.6879 61.559 19.9345Q61.3765 20.1812 61.1821 20.4187Q60.9877 20.6561 60.7819 20.8837Q60.5761 21.1113 60.3593 21.3285Q60.1426 21.5458 59.9155 21.7521Q59.6884 21.9584 59.4514 22.1534Q59.2144 22.3483 58.9681 22.5314Q58.7219 22.7145 58.4669 22.8853Q58.212 23.0561 57.949 23.2141Q57.686 23.3722 57.4155 23.5171Q57.1451 23.6621 56.8678 23.7936Q56.5906 23.9252 56.3072 24.0429Q56.0238 24.1607 55.735 24.2644Q55.4462 24.3681 55.1527 24.4575Q54.8592 24.5469 54.5616 24.6218Q54.264 24.6968 53.9631 24.757Q53.6622 24.8172 53.3588 24.8626Q53.0553 24.9079 52.7499 24.9384Q52.4446 24.9688 52.1381 24.9842Q51.8316 24.9996 51.5248 25Q51.2179 25.0004 50.9114 24.9857Q50.6049 24.971 50.2995 24.9412ZM6.04576 253L18.4201 265.374C19.4101 266.364 19.4101 267.92 18.4201 268.91C17.4302 269.9 15.8745 269.9 14.8846 268.91L0.742455 254.768C-0.247498 253.778 -0.247475 252.222 0.74247 251.232L14.8846 237.09C15.8745 236.1 17.4302 236.1 18.4201 237.09C19.4101 238.08 19.4101 239.636 18.4201 240.626L6.04576 253Z" fill="#ECECEC" fill-opacity="1.000000" fill-rule="evenodd"/>
</svg>
