<svg width="30.000015" height="30.000000" viewBox="0 0 30 30" fill="none" xmlns="http://www.w3.org/2000/svg" xmlns:xlink="http://www.w3.org/1999/xlink">
	<desc>
			Created with Pixso.
	</desc>
	<defs/>
	<path id="Vector" d="M10.9207 13.8423C10.579 13.8455 10.2421 13.7654 9.94212 13.6097L7.57014 12.4166L5.15561 13.6097C4.8082 13.7716 4.42091 13.8404 4.03545 13.8086C3.64999 13.7768 3.28094 13.6457 2.96803 13.4294C2.65512 13.213 2.4102 12.9197 2.25964 12.5809C2.10907 12.2421 2.05855 11.8706 2.11351 11.5066L2.56026 8.97876L0.63501 7.18909C0.363632 6.92551 0.173233 6.59644 0.0844269 6.2374C-0.00437927 5.87839 0.011795 5.50311 0.131195 5.15219C0.250595 4.8013 0.468674 4.4881 0.761826 4.24652C1.05499 4.00494 1.41206 3.84418 1.79442 3.78162L4.46423 3.4176L5.66617 1.11224C5.84377 0.777222 6.11591 0.495758 6.45215 0.299316C6.78839 0.102905 7.17549 -0.000732422 7.57014 0C7.96118 0.00299072 8.3438 0.108398 8.67593 0.304596C9.00806 0.500824 9.27689 0.780273 9.45284 1.11224L10.6441 3.4176L13.3246 3.78162C13.707 3.84418 14.064 4.00494 14.3572 4.24652C14.6503 4.4881 14.8684 4.8013 14.9878 5.15219C15.1072 5.50311 15.1234 5.87839 15.0346 6.2374C14.9458 6.59644 14.7554 6.92551 14.484 7.18909L12.5268 8.97876L12.9842 11.5066C13.0542 11.8741 13.0122 12.2531 12.8634 12.5988C12.7145 12.9445 12.4649 13.2426 12.1439 13.458C11.7916 13.7102 11.3617 13.8452 10.9207 13.8423ZM7.57014 2.00201L5.87891 5.25784L2.10287 5.78363L4.84715 8.2912L4.20894 11.8706L7.57014 10.1315L10.9526 11.82L10.24 8.2912L12.9736 5.7533L9.20819 5.25784L7.57014 2.00201Z" fill="#02A0E1" fill-opacity="1.000000" fill-rule="nonzero"/>
	<path id="Vector" d="M10.9207 30C10.5797 29.9981 10.244 29.9184 9.94215 29.7674L7.57018 28.5642L5.15564 29.7674C4.80823 29.9293 4.42094 29.998 4.03548 29.9662C3.65002 29.9345 3.28098 29.8034 2.96806 29.587C2.65515 29.3707 2.41023 29.0774 2.25967 28.7386C2.1091 28.3997 2.05858 28.0283 2.11354 27.6643L2.56029 25.1263L0.63504 23.3367C0.35437 23.0818 0.155426 22.7566 0.0612946 22.3987C-0.0328369 22.0408 -0.0183105 21.6648 0.10321 21.3144C0.225708 20.961 0.448425 20.6466 0.746811 20.4057C1.04521 20.1649 1.40771 20.007 1.79445 19.9494L4.46426 19.5854L5.6662 17.28C5.84084 16.9412 6.11169 16.6556 6.44817 16.4555C6.78462 16.2554 7.17328 16.1487 7.57018 16.1476C7.96121 16.1506 8.34383 16.256 8.67596 16.4522C9.00809 16.6484 9.27692 16.9279 9.45287 17.2598L10.6442 19.5652L13.3246 19.9292C13.707 19.9918 14.0641 20.1525 14.3572 20.3941C14.6504 20.6357 14.8685 20.9489 14.9879 21.2998C15.1072 21.6507 15.1234 22.026 15.0346 22.385C14.9458 22.744 14.7554 23.0731 14.484 23.3367L12.5482 25.1263L13.0055 27.6643C13.0527 27.9498 13.0349 28.2417 12.9534 28.5201C12.8719 28.7986 12.7286 29.0572 12.533 29.2786C12.3374 29.4999 12.0943 29.6788 11.8198 29.8033C11.5453 29.9277 11.246 29.9948 10.942 30L10.9207 30ZM7.57018 18.1496L5.87894 21.4358L2.10291 21.9514L4.84718 24.4691L4.20898 28.0586L7.57018 26.279L10.9527 27.9777L10.24 24.4691L12.9736 21.9413L9.20822 21.4358L7.57018 18.1496Z" fill="#02A0E1" fill-opacity="1.000000" fill-rule="nonzero"/>
	<path id="Vector" d="M23.3656 10.5257L24.8122 13.3468L28.0033 13.7917C28.1888 13.8266 28.3613 13.9079 28.5028 14.0273C28.6443 14.1467 28.7497 14.2997 28.8083 14.4708C28.8668 14.6418 28.8763 14.8246 28.8357 15.0002C28.7952 15.1759 28.7061 15.3381 28.5776 15.4701L26.2801 17.5935L26.8332 20.6269C26.851 20.8044 26.819 20.9832 26.7406 21.1451C26.6622 21.3071 26.5401 21.4465 26.3867 21.5492C26.2334 21.6518 26.0542 21.7141 25.8674 21.7297C25.6805 21.7453 25.4926 21.7137 25.3228 21.638L22.4615 20.2426L19.5683 21.6885C19.399 21.7618 19.2123 21.7915 19.0271 21.7747C18.8418 21.7579 18.6644 21.6953 18.5126 21.5929C18.3608 21.4906 18.2399 21.3522 18.162 21.1915C18.0841 21.0309 18.0519 20.8536 18.0686 20.6774L18.6217 17.644L16.2922 15.4802C16.1638 15.3489 16.0745 15.1874 16.0334 15.0125C15.9922 14.8375 16.0008 14.6552 16.0581 14.4844C16.1155 14.3136 16.2196 14.1604 16.3598 14.0404C16.5 13.9204 16.6713 13.8381 16.856 13.8018L20.047 13.3569L21.4936 10.5763C21.5798 10.4132 21.7109 10.2754 21.8729 10.1773C22.0349 10.0793 22.2218 10.0249 22.4137 10.0197C22.6057 10.0145 22.7955 10.0588 22.9631 10.1479C23.1307 10.237 23.2698 10.3676 23.3656 10.5257Z" fill="#BDEEFF" fill-opacity="1.000000" fill-rule="nonzero"/>
	<path id="Vector" d="M19.0684 22.8109C18.6274 22.8141 18.1962 22.6869 17.8345 22.4469C17.5211 22.2253 17.2779 21.9261 17.1316 21.5818C16.9852 21.2376 16.9414 20.8618 17.0049 20.4954L17.4622 17.9676L15.5264 16.1678C15.2579 15.904 15.0701 15.5757 14.983 15.218C14.8959 14.8604 14.9128 14.487 15.032 14.1379C15.1511 13.7888 15.368 13.477 15.6593 13.2361C15.9507 12.9952 16.3055 12.8342 16.6858 12.7704L19.3662 12.3357L20.5575 10.0303C20.738 9.70419 21.0088 9.43118 21.3406 9.24072C21.6724 9.05026 22.0526 8.94958 22.4402 8.94958C22.8278 8.94958 23.2081 9.05026 23.5399 9.24072C23.8717 9.43118 24.1425 9.70419 24.3229 10.0303L25.5142 12.3357L28.1947 12.7098C28.589 12.7664 28.9587 12.9272 29.2615 13.174C29.5643 13.4207 29.788 13.7433 29.9072 14.1051C30.0201 14.4563 30.0302 14.8301 29.9365 15.1864C29.8428 15.5427 29.6488 15.868 29.3754 16.1273L27.4395 17.9272L27.8969 20.455C27.9664 20.8295 27.9234 21.215 27.7729 21.5673C27.6224 21.9196 27.3704 22.2245 27.0459 22.4469C26.7275 22.6632 26.3525 22.7918 25.9621 22.8185C25.5718 22.8453 25.1813 22.7692 24.8335 22.5985L22.4615 21.4358L20.0682 22.6289C19.7554 22.7656 19.4123 22.828 19.0684 22.8109ZM22.4615 10.9706L20.8235 14.2264L17.0474 14.7522L19.8023 17.2396L19.1535 20.819L22.4615 19.1001L25.844 20.7886L25.1526 17.2396L27.8969 14.7017L24.1208 14.2264L22.4615 10.9706Z" fill="#02A0E1" fill-opacity="1.000000" fill-rule="nonzero"/>
</svg>
