<svg xmlns="http://www.w3.org/2000/svg" width="10" height="10" viewBox="0 0 10 10" fill="none">
  <path fill-rule="evenodd" clip-rule="evenodd" d="M2.03125 3.125C2.29031 3.125 2.5 3.335 2.5 3.59375C2.5 3.85281 2.29031 4.0625 2.03125 4.0625C1.77219 4.0625 1.5625 3.85281 1.5625 3.59375C1.5625 3.335 1.77219 3.125 2.03125 3.125ZM3.90625 3.125C4.16531 3.125 4.375 3.335 4.375 3.59375C4.375 3.85281 4.16531 4.0625 3.90625 4.0625C3.64719 4.0625 3.4375 3.85281 3.4375 3.59375C3.4375 3.335 3.64719 3.125 3.90625 3.125ZM5.78125 3.125C6.04031 3.125 6.25 3.335 6.25 3.59375C6.25 3.85281 6.04031 4.0625 5.78125 4.0625C5.52219 4.0625 5.3125 3.85281 5.3125 3.59375C5.3125 3.335 5.52219 3.125 5.78125 3.125ZM3.01156 7.105C3.25437 7.14469 3.80656 7.1875 4.0625 7.1875C6.30625 7.1875 7.8125 5.51781 7.8125 3.55469C7.8125 1.59156 5.93031 0 4.0625 0C1.81594 0 0 1.59156 0 3.55469C0 4.69219 0.433438 5.6575 1.25 6.35282V8.125L3.01156 7.105ZM8.42156 2.85594L8.4375 3.125C8.44 3.38031 8.4375 3.35687 8.4375 3.59375C8.4375 6.08594 6.47375 7.8125 3.75 7.8125H2.8125C3.55625 8.54 4.42156 8.98438 5.625 8.98438C5.88094 8.98438 6.13062 8.96125 6.37343 8.92157L8.125 10V8.22782C9.075 7.57688 9.6875 6.56719 9.6875 5.42969C9.6875 4.41594 9.19969 3.50344 8.42156 2.85594Z" fill="#FAFAFA"/>
</svg>