<svg xmlns="http://www.w3.org/2000/svg" width="9" height="10" viewBox="0 0 9 10" fill="none">
  <path d="M0.346151 5.8213L0.691013 5.85134C0.675044 6.03748 0.516424 6.17786 0.331229 6.16981C0.146029 6.16176 0 6.00809 0 5.8213H0.346151ZM8.3012 4.9733L7.97558 3.07574L8.65778 2.95685L8.98339 4.85441L8.3012 4.9733ZM5.07457 0.697674H2.92906V0H5.07457V0.697674ZM2.50843 1.08723L2.13359 5.4559L1.44386 5.39581L1.8187 1.02712L2.50843 1.08723ZM7.97558 3.07574C7.74168 1.71268 6.52208 0.697674 5.07457 0.697674V0C6.84049 0 8.36337 1.24137 8.65778 2.95685L7.97558 3.07574ZM5.07909 8.2092L4.77323 6.32804L5.45644 6.21525L5.7623 8.09641L5.07909 8.2092ZM2.27893 5.816L2.94296 6.39265L2.49103 6.92116L1.82701 6.34451L2.27893 5.816ZM4.15104 8.26878L4.37059 9.12176L3.70049 9.29692L3.48093 8.44399L4.15104 8.26878ZM4.7022 9.28911L4.76912 9.26743L4.98088 9.93167L4.91395 9.95334L4.7022 9.28911ZM3.8185 7.41116C3.96245 7.68278 4.07428 7.97051 4.15104 8.26878L3.48093 8.44399C3.418 8.19948 3.32627 7.9633 3.20786 7.7399L3.8185 7.41116ZM4.76912 9.26743C4.91054 9.22167 5.01097 9.11157 5.04397 8.98334L5.71411 9.1585C5.61927 9.52688 5.33949 9.81557 4.98088 9.93167L4.76912 9.26743ZM4.37059 9.12176C4.38679 9.18455 4.43179 9.24227 4.49986 9.27534L4.19931 9.90385C3.95378 9.7846 3.76935 9.5645 3.70049 9.29692L4.37059 9.12176ZM4.49986 9.27534C4.56203 9.30553 4.63523 9.31078 4.7022 9.28911L4.91395 9.95334C4.67871 10.0295 4.42205 10.012 4.19931 9.90385L4.49986 9.27534ZM5.49396 5.47246H7.88522V6.17013H5.49396V5.47246ZM1.13944 0.625065L0.691013 5.85134L0.00128767 5.79125L0.449714 0.564962L1.13944 0.625065ZM0.692301 0.575469V5.8213H0V0.575469H0.692301ZM0.449714 0.564962C0.443627 0.635916 0.499131 0.697674 0.570784 0.697674V0C0.905844 0 1.16824 0.289349 1.13944 0.625065L0.449714 0.564962ZM5.7623 8.09641C5.81976 8.44995 5.80338 8.81171 5.71411 9.1585L5.04397 8.98334C5.10904 8.7306 5.121 8.46692 5.07909 8.2092L5.7623 8.09641ZM2.92906 0.697674C2.71033 0.697674 2.52736 0.86652 2.50843 1.08723L1.8187 1.02712C1.86853 0.446395 2.35045 0 2.92906 0V0.697674ZM2.94296 6.39265C3.25673 6.66511 3.59498 6.98944 3.8185 7.41116L3.20786 7.7399C3.04799 7.43827 2.79343 7.18376 2.49103 6.92116L2.94296 6.39265ZM8.98339 4.85441C9.10122 5.54116 8.5772 6.17013 7.88522 6.17013V5.47246C8.14672 5.47246 8.34601 5.23446 8.3012 4.9733L8.98339 4.85441ZM0.570784 0.697674C0.638265 0.697674 0.692301 0.642586 0.692301 0.575469H0C0 0.258018 0.255178 0 0.570784 0V0.697674ZM4.77323 6.32804C4.70045 5.88018 5.043 5.47246 5.49396 5.47246V6.17013C5.47093 6.17013 5.45252 6.19116 5.45644 6.21525L4.77323 6.32804ZM2.13359 5.4559C2.12186 5.59265 2.17602 5.7266 2.27893 5.816L1.82701 6.34451C1.55547 6.10869 1.41298 5.75567 1.44386 5.39581L2.13359 5.4559Z" fill="#FAFAFA"/>
</svg>