<svg width="30.000000" height="30.000000" viewBox="0 0 30 30" fill="none" xmlns="http://www.w3.org/2000/svg" xmlns:xlink="http://www.w3.org/1999/xlink">
	<desc>
			Created with Pixso.
	</desc>
	<defs/>
	<path id="Vector" d="M28.438 1.30681C26.6955 -0.435593 23.8706 -0.435608 22.1282 1.30681L19.6299 3.80508L7.8718 15.5632C7.68118 15.7538 7.54599 15.9927 7.48061 16.2541L5.99336 22.2031C5.86665 22.71 6.01515 23.2461 6.38455 23.6154C6.75395 23.9848 7.29008 24.1334 7.79691 24.0067L13.7458 22.5195C14.0074 22.454 14.2461 22.3188 14.4368 22.1282L26.1094 10.4556L28.6932 7.87183C30.4356 6.12941 30.4356 3.3044 28.6932 1.56198L28.438 1.30681ZM24.2314 3.4101C24.8122 2.82928 25.7539 2.82928 26.3347 3.4101L26.5899 3.66525C27.1707 4.24606 27.1707 5.18774 26.5899 5.76854L25.0781 7.28036L22.7649 4.87669L24.2314 3.4101ZM20.6612 6.98035L22.9744 9.38402L12.6249 19.7337L9.48021 20.5199L10.2664 17.3752L20.6612 6.98035ZM2.97447 9.17863C2.97447 8.35725 3.64035 7.69139 4.46172 7.69139L11.8979 7.69139C12.7193 7.69139 13.3852 7.02554 13.3852 6.20415C13.3852 5.38277 12.7193 4.7169 11.8979 4.7169L4.46172 4.7169C1.99759 4.7169 0 6.71449 0 9.17863L0 25.5383C0 28.0025 1.99759 30 4.46172 30L20.8214 30C23.2856 30 25.2831 28.0025 25.2831 25.5383L25.2831 18.102C25.2831 17.2808 24.6172 16.6148 23.7958 16.6148C22.9744 16.6148 22.3086 17.2808 22.3086 18.102L22.3086 25.5383C22.3086 26.3597 21.6428 27.0255 20.8214 27.0255L4.46172 27.0255C3.64035 27.0255 2.97447 26.3597 2.97447 25.5383L2.97447 9.17863Z" fill="#FFAF66" fill-opacity="1.000000" fill-rule="evenodd"/>
</svg>
