<svg width="30.000000" height="25.882935" viewBox="0 0 30 25.8829" fill="none" xmlns="http://www.w3.org/2000/svg" xmlns:xlink="http://www.w3.org/1999/xlink">
	<desc>
			Created with Pixso.
	</desc>
	<defs/>
	<path id="Vector" d="M28.5472 0L1.45279 0C0.650421 0 0 0.650421 0 1.45279L0 18.4504C0 19.2528 0.650421 19.9032 1.45279 19.9032L11.5859 19.9032L11.5859 23.1953L7.64285 23.1953C6.90186 23.1953 6.29901 23.7981 6.29901 24.5391C6.29901 25.2801 6.90186 25.8829 7.64285 25.8829L22.3571 25.8829C23.0981 25.8829 23.701 25.2801 23.701 24.5391C23.701 23.7981 23.0981 23.1953 22.3571 23.1953L18.4141 23.1953L18.4141 19.9032L28.5472 19.9032C29.3496 19.9032 30 19.2528 30 18.4504L30 1.45279C30 0.650421 29.3496 0 28.5472 0ZM27.8208 17.7241L2.17918 17.7241L2.17918 2.1792L27.8208 2.1792L27.8208 17.7241Z" fill="#8252EA" fill-opacity="1.000000" fill-rule="nonzero"/>
	<path id="Vector" d="M9.77647 15.0338C10.3259 15.0338 10.7717 14.5881 10.7717 14.0388L10.7717 9.30585C10.7717 8.75641 10.3258 8.31091 9.77647 8.31091C9.22704 8.31091 8.78168 8.75641 8.78168 9.30585L8.78168 14.0387C8.78168 14.5881 9.22696 15.0338 9.77647 15.0338Z" fill="#8252EA" fill-opacity="1.000000" fill-rule="nonzero"/>
	<path id="Vector" d="M13.2589 15.0338C13.8083 15.0338 14.2537 14.5881 14.2537 14.0388L14.2537 5.8233C14.2537 5.27383 13.8083 4.82849 13.2589 4.82849C12.7093 4.82849 12.2638 5.27383 12.2638 5.8233L12.2638 14.0388C12.2638 14.5881 12.7093 15.0338 13.2589 15.0338Z" fill="#8252EA" fill-opacity="1.000000" fill-rule="nonzero"/>
	<path id="Vector" d="M16.7411 15.0339C17.2907 15.0339 17.7362 14.5882 17.7362 14.0388L17.7362 7.9129C17.7362 7.36343 17.2907 6.91809 16.7411 6.91809C16.1918 6.91809 15.7465 7.36343 15.7465 7.9129L15.7465 14.0388C15.7462 14.5882 16.1915 15.0339 16.7411 15.0339Z" fill="#8252EA" fill-opacity="1.000000" fill-rule="nonzero"/>
	<path id="Vector" d="M20.2236 15.0339C20.7729 15.0339 21.2182 14.5882 21.2182 14.0388L21.2182 6.86823C21.2182 6.31879 20.7728 5.87329 20.2236 5.87329C19.6742 5.87329 19.2284 6.31879 19.2284 6.86823L19.2284 14.0388C19.2284 14.5882 19.6742 15.0339 20.2236 15.0339Z" fill="#8252EA" fill-opacity="1.000000" fill-rule="nonzero"/>
</svg>
