<svg xmlns="http://www.w3.org/2000/svg" width="9" height="10" viewBox="0 0 9 10" fill="none">
  <path d="M0.346151 4.1787L0.691013 4.14865C0.675044 3.96253 0.516424 3.82213 0.331229 3.83019C0.146029 3.83824 0 3.99189 0 4.1787H0.346151ZM8.3012 5.0267L7.97558 6.92423L8.65778 7.04316L8.98339 5.14558L8.3012 5.0267ZM5.07457 9.30233H2.92906V10H5.07457V9.30233ZM2.50843 8.91279L2.13359 4.54409L1.44386 4.60419L1.8187 8.97288L2.50843 8.91279ZM7.97558 6.92423C7.74168 8.2873 6.52208 9.30233 5.07457 9.30233V10C6.84049 10 8.36337 8.75861 8.65778 7.04316L7.97558 6.92423ZM5.07909 1.79077L4.77323 3.67196L5.45644 3.78477L5.7623 1.90357L5.07909 1.79077ZM2.27893 4.184L2.94296 3.60737L2.49103 3.07885L1.82701 3.6555L2.27893 4.184ZM4.15104 1.73119L4.37059 0.878235L3.70049 0.703054L3.48093 1.55601L4.15104 1.73119ZM4.7022 0.710886L4.76912 0.732547L4.98088 0.0683092L4.91395 0.0466487L4.7022 0.710886ZM3.8185 2.58883C3.96245 2.3172 4.07428 2.02948 4.15104 1.73119L3.48093 1.55601C3.418 1.8005 3.32627 2.03671 3.20786 2.26011L3.8185 2.58883ZM4.76912 0.732547C4.91054 0.778333 5.01097 0.888412 5.04397 1.01667L5.71411 0.841491C5.61927 0.473109 5.33949 0.184407 4.98088 0.0683092L4.76912 0.732547ZM4.37059 0.878235C4.38679 0.81544 4.43179 0.757733 4.49986 0.724668L4.19931 0.0961604C3.95378 0.215388 3.76935 0.435472 3.70049 0.703054L4.37059 0.878235ZM4.49986 0.724668C4.56203 0.694468 4.63523 0.689212 4.7022 0.710886L4.91395 0.0466487C4.67871 -0.0295141 4.42205 -0.0120024 4.19931 0.0961604L4.49986 0.724668ZM5.49396 4.52753H7.88522V3.82986H5.49396V4.52753ZM1.13944 9.37493L0.691013 4.14865L0.00128767 4.20874L0.449714 9.43502L1.13944 9.37493ZM0.692301 9.42451V4.1787H0V9.42451H0.692301ZM0.449714 9.43502C0.443627 9.36409 0.499131 9.30233 0.570784 9.30233V10C0.905844 10 1.16824 9.71065 1.13944 9.37493L0.449714 9.43502ZM5.7623 1.90357C5.81976 1.55003 5.80338 1.18827 5.71411 0.841491L5.04397 1.01667C5.10904 1.26941 5.121 1.53308 5.07909 1.79077L5.7623 1.90357ZM2.92906 9.30233C2.71033 9.30233 2.52736 9.13349 2.50843 8.91279L1.8187 8.97288C1.86853 9.55358 2.35045 10 2.92906 10V9.30233ZM2.94296 3.60737C3.25673 3.33488 3.59498 3.01054 3.8185 2.58883L3.20786 2.26011C3.04799 2.56171 2.79343 2.81625 2.49103 3.07885L2.94296 3.60737ZM8.98339 5.14558C9.10122 4.45884 8.5772 3.82986 7.88522 3.82986V4.52753C8.14672 4.52753 8.34601 4.76553 8.3012 5.0267L8.98339 5.14558ZM0.570784 9.30233C0.638265 9.30233 0.692301 9.3574 0.692301 9.42451H0C0 9.742 0.255178 10 0.570784 10V9.30233ZM4.77323 3.67196C4.70045 4.11982 5.043 4.52753 5.49396 4.52753V3.82986C5.47093 3.82986 5.45252 3.80884 5.45644 3.78477L4.77323 3.67196ZM2.13359 4.54409C2.12186 4.40735 2.17602 4.27339 2.27893 4.184L1.82701 3.6555C1.55547 3.89131 1.41298 4.24432 1.44386 4.60419L2.13359 4.54409Z" fill="#FAFAFA"/>
</svg>