<svg width="132" height="16" viewBox="0 0 132 16" fill="none" xmlns="http://www.w3.org/2000/svg">
<path d="M10.4 7.62H14.5V13.54C13.6733 14.1133 12.7133 14.5533 11.62 14.86C10.5267 15.1667 9.45333 15.32 8.4 15.32C6.90667 15.32 5.56667 15.0133 4.38 14.4C3.19333 13.7733 2.26 12.9067 1.58 11.8C0.913333 10.68 0.58 9.41333 0.58 8C0.58 6.58667 0.913333 5.32667 1.58 4.22C2.26 3.1 3.2 2.23333 4.4 1.62C5.61333 0.993333 6.98 0.68 8.5 0.68C9.87333 0.68 11.1 0.913333 12.18 1.38C13.2733 1.83333 14.18 2.5 14.9 3.38L11.88 6.04C11 5.01333 9.95333 4.5 8.74 4.5C7.7 4.5 6.87333 4.81333 6.26 5.44C5.64667 6.06667 5.34 6.92 5.34 8C5.34 9.05333 5.64 9.9 6.24 10.54C6.85333 11.18 7.66667 11.5 8.68 11.5C9.28 11.5 9.85333 11.3867 10.4 11.16V7.62ZM21.2711 3.86C23.1911 3.86 24.6578 4.29333 25.6711 5.16C26.6844 6.01333 27.1911 7.33333 27.1911 9.12V15H22.9911V13.56C22.4711 14.6533 21.4378 15.2 19.8911 15.2C19.0244 15.2 18.2844 15.0533 17.6711 14.76C17.0711 14.4533 16.6111 14.0467 16.2911 13.54C15.9844 13.02 15.8311 12.44 15.8311 11.8C15.8311 10.72 16.2444 9.9 17.0711 9.34C17.8978 8.78 19.1511 8.5 20.8311 8.5H22.6511C22.5044 7.64667 21.8178 7.22 20.5911 7.22C20.0978 7.22 19.5978 7.3 19.0911 7.46C18.5844 7.60667 18.1511 7.81333 17.7911 8.08L16.3511 5.1C16.9778 4.71333 17.7311 4.41333 18.6111 4.2C19.5044 3.97333 20.3911 3.86 21.2711 3.86ZM21.2511 12.48C21.5711 12.48 21.8578 12.3933 22.1111 12.22C22.3644 12.0467 22.5511 11.7867 22.6711 11.44V10.68H21.5511C20.6311 10.68 20.1711 10.9867 20.1711 11.6C20.1711 11.8533 20.2644 12.0667 20.4511 12.24C20.6511 12.4 20.9178 12.48 21.2511 12.48ZM43.6245 3.86C44.9445 3.86 45.9979 4.26667 46.7845 5.08C47.5845 5.89333 47.9845 7.12 47.9845 8.76V15H43.4645V9.54C43.4645 8.28667 43.0579 7.66 42.2445 7.66C41.8179 7.66 41.4712 7.82 41.2045 8.14C40.9512 8.46 40.8245 8.96667 40.8245 9.66V15H36.3045V9.54C36.3045 8.28667 35.8979 7.66 35.0845 7.66C34.6579 7.66 34.3112 7.82 34.0445 8.14C33.7912 8.46 33.6645 8.96667 33.6645 9.66V15H29.1445V4.06H33.4445V5.08C34.2579 4.26667 35.2912 3.86 36.5445 3.86C37.2779 3.86 37.9379 4 38.5245 4.28C39.1112 4.54667 39.5912 4.96 39.9645 5.52C40.4045 4.98667 40.9379 4.58 41.5645 4.3C42.1912 4.00667 42.8779 3.86 43.6245 3.86ZM61.7806 9.52C61.7806 9.58667 61.7606 9.94 61.7206 10.58H54.1206C54.2806 10.9933 54.5473 11.3133 54.9206 11.54C55.294 11.7533 55.7606 11.86 56.3206 11.86C56.8006 11.86 57.2006 11.8 57.5206 11.68C57.854 11.56 58.214 11.3533 58.6006 11.06L60.9606 13.44C59.894 14.6133 58.3006 15.2 56.1806 15.2C54.8606 15.2 53.7006 14.96 52.7006 14.48C51.7006 13.9867 50.9273 13.3067 50.3806 12.44C49.834 11.5733 49.5606 10.6 49.5606 9.52C49.5606 8.42667 49.8273 7.45333 50.3606 6.6C50.9073 5.73333 51.6473 5.06 52.5806 4.58C53.5273 4.1 54.5873 3.86 55.7606 3.86C56.8673 3.86 57.874 4.08 58.7806 4.52C59.7006 4.96 60.4273 5.60667 60.9606 6.46C61.5073 7.31333 61.7806 8.33333 61.7806 9.52ZM55.8006 6.94C55.334 6.94 54.9473 7.06667 54.6406 7.32C54.334 7.57333 54.134 7.93333 54.0406 8.4H57.5606C57.4673 7.94667 57.2673 7.59333 56.9606 7.34C56.654 7.07333 56.2673 6.94 55.8006 6.94ZM67.507 5.24C68.307 4.32 69.487 3.86 71.047 3.86V7.86C70.687 7.80667 70.3537 7.78 70.047 7.78C68.5004 7.78 67.727 8.56667 67.727 10.14V15H63.207V4.06H67.507V5.24ZM87.0375 0.999999L81.1175 15H76.4775L70.5575 0.999999H75.6375L78.9775 9.18L82.3975 0.999999H87.0375ZM98.2064 9.52C98.2064 9.58667 98.1864 9.94 98.1464 10.58H90.5464C90.7064 10.9933 90.9731 11.3133 91.3464 11.54C91.7197 11.7533 92.1864 11.86 92.7464 11.86C93.2264 11.86 93.6264 11.8 93.9464 11.68C94.2797 11.56 94.6397 11.3533 95.0264 11.06L97.3864 13.44C96.3197 14.6133 94.7264 15.2 92.6064 15.2C91.2864 15.2 90.1264 14.96 89.1264 14.48C88.1264 13.9867 87.3531 13.3067 86.8064 12.44C86.2597 11.5733 85.9864 10.6 85.9864 9.52C85.9864 8.42667 86.2531 7.45333 86.7864 6.6C87.3331 5.73333 88.0731 5.06 89.0064 4.58C89.9531 4.1 91.0131 3.86 92.1864 3.86C93.2931 3.86 94.2997 4.08 95.2064 4.52C96.1264 4.96 96.8531 5.60667 97.3864 6.46C97.9331 7.31333 98.2064 8.33333 98.2064 9.52ZM92.2264 6.94C91.7597 6.94 91.3731 7.06667 91.0664 7.32C90.7597 7.57333 90.5597 7.93333 90.4664 8.4H93.9864C93.8931 7.94667 93.6931 7.59333 93.3864 7.34C93.0797 7.07333 92.6931 6.94 92.2264 6.94ZM103.933 5.24C104.733 4.32 105.913 3.86 107.473 3.86V7.86C107.113 7.80667 106.779 7.78 106.473 7.78C104.926 7.78 104.153 8.56667 104.153 10.14V15H99.6328V4.06H103.933V5.24ZM113.034 15.2C112.101 15.2 111.181 15.1 110.274 14.9C109.367 14.7 108.634 14.44 108.074 14.12L109.314 11.14C109.821 11.4467 110.421 11.6867 111.114 11.86C111.807 12.0333 112.481 12.12 113.134 12.12C113.654 12.12 114.014 12.08 114.214 12C114.427 11.9067 114.534 11.7733 114.534 11.6C114.534 11.4267 114.401 11.3067 114.134 11.24C113.881 11.1733 113.461 11.1067 112.874 11.04C111.981 10.9333 111.221 10.8 110.594 10.64C109.967 10.4667 109.414 10.14 108.934 9.66C108.467 9.18 108.234 8.49333 108.234 7.6C108.234 6.89333 108.447 6.26 108.874 5.7C109.301 5.14 109.934 4.69333 110.774 4.36C111.627 4.02667 112.647 3.86 113.834 3.86C114.661 3.86 115.467 3.94 116.254 4.1C117.054 4.24667 117.734 4.46667 118.294 4.76L117.054 7.74C116.094 7.20667 115.041 6.94 113.894 6.94C112.907 6.94 112.414 7.11333 112.414 7.46C112.414 7.63333 112.547 7.76 112.814 7.84C113.081 7.90667 113.501 7.97333 114.074 8.04C114.967 8.14667 115.721 8.28667 116.334 8.46C116.961 8.63333 117.507 8.96 117.974 9.44C118.454 9.92 118.694 10.6067 118.694 11.5C118.694 12.18 118.481 12.8 118.054 13.36C117.627 13.92 116.987 14.3667 116.134 14.7C115.281 15.0333 114.247 15.2 113.034 15.2ZM131.703 9.52C131.703 9.58667 131.683 9.94 131.643 10.58H124.043C124.203 10.9933 124.469 11.3133 124.843 11.54C125.216 11.7533 125.683 11.86 126.243 11.86C126.723 11.86 127.123 11.8 127.443 11.68C127.776 11.56 128.136 11.3533 128.523 11.06L130.883 13.44C129.816 14.6133 128.223 15.2 126.103 15.2C124.783 15.2 123.623 14.96 122.623 14.48C121.623 13.9867 120.849 13.3067 120.303 12.44C119.756 11.5733 119.483 10.6 119.483 9.52C119.483 8.42667 119.749 7.45333 120.283 6.6C120.829 5.73333 121.569 5.06 122.503 4.58C123.449 4.1 124.509 3.86 125.683 3.86C126.789 3.86 127.796 4.08 128.703 4.52C129.623 4.96 130.349 5.60667 130.883 6.46C131.429 7.31333 131.703 8.33333 131.703 9.52ZM125.723 6.94C125.256 6.94 124.869 7.06667 124.563 7.32C124.256 7.57333 124.056 7.93333 123.963 8.4H127.483C127.389 7.94667 127.189 7.59333 126.883 7.34C126.576 7.07333 126.189 6.94 125.723 6.94Z" fill="#575757"/>
</svg>
