<svg xmlns="http://www.w3.org/2000/svg" width="48" height="43" viewBox="0 0 48 43" fill="none">
  <path fill-rule="evenodd" clip-rule="evenodd" d="M0 7.16667C0 3.20864 3.22356 0 7.2 0H40.8C44.7766 0 48 3.20864 48 7.16667V28.6667C48 32.6248 44.7766 35.8333 40.8 35.8333H26.4V38.2222H31.2C32.5255 38.2222 33.6 39.2917 33.6 40.6111C33.6 41.9305 32.5255 43 31.2 43H16.8C15.4745 43 14.4 41.9305 14.4 40.6111C14.4 39.2917 15.4745 38.2222 16.8 38.2222H21.6V35.8333H7.2C3.22356 35.8333 0 32.6248 0 28.6667V7.16667ZM7.2 4.77778C5.87453 4.77778 4.8 5.84733 4.8 7.16667V28.6667C4.8 29.986 5.87453 31.0556 7.2 31.0556H40.8C42.1255 31.0556 43.2 29.986 43.2 28.6667V7.16667C43.2 5.84733 42.1255 4.77778 40.8 4.77778H7.2Z" fill="#FAFAFA"/>
</svg>