<svg xmlns="http://www.w3.org/2000/svg" width="27" height="43" viewBox="0 0 27 43" fill="none">
  <path fill-rule="evenodd" clip-rule="evenodd" d="M19.4394 0.25H7.56063C5.19125 0.25 4.33275 0.4965 3.46787 0.95975C2.61232 1.41267 1.91267 2.11232 1.45975 2.96788C0.9965 3.83275 0.75 4.69125 0.75 7.06063V35.9394C0.75 38.3066 0.9965 39.1673 1.45975 40.0321C1.923 40.897 2.603 41.577 3.46787 42.0403C4.33275 42.5035 5.19125 42.75 7.56063 42.75H19.4394C21.8066 42.75 22.6673 42.5035 23.5321 42.0403C24.397 41.577 25.077 40.897 25.5403 40.0321C26.0035 39.1673 26.25 38.3088 26.25 35.9394V7.06063C26.25 4.69125 26.0035 3.83275 25.5403 2.96788C25.0873 2.11232 24.3877 1.41267 23.5321 0.95975C22.6673 0.4965 21.8088 0.25 19.4394 0.25ZM5 34.2394V8.76062H22V34.2394H5Z" fill="#FAFAFA"/>
</svg>