<svg width="54.000000" height="54.000000" viewBox="0 0 54 54" fill="none" xmlns="http://www.w3.org/2000/svg" xmlns:xlink="http://www.w3.org/1999/xlink">
	<desc>
			Created with Pixso.
	</desc>
	<defs>
		<filter id="filter_1_325_dd" x="0.000000" y="0.000000" width="54.000000" height="54.000000" filterUnits="userSpaceOnUse" color-interpolation-filters="sRGB">
			<feFlood flood-opacity="0" result="BackgroundImageFix"/>
			<feColorMatrix in="SourceAlpha" type="matrix" values="0 0 0 0 0 0 0 0 0 0 0 0 0 0 0 0 0 0 127 0" result="hardAlpha"/>
			<feOffset dx="1" dy="2"/>
			<feGaussianBlur stdDeviation="2.33333"/>
			<feComposite in2="hardAlpha" operator="out" k2="-1" k3="1"/>
			<feColorMatrix type="matrix" values="0 0 0 0 0 0 0 0 0 0 0 0 0 0 0 0 0 0 0.25 0"/>
			<feBlend mode="normal" in2="BackgroundImageFix" result="effect_dropShadow_1"/>
			<feBlend mode="normal" in="SourceGraphic" in2="effect_dropShadow_1" result="shape"/>
		</filter>
	</defs>
	<g filter="url(#filter_1_325_dd)">
		<rect id="Rectangle 18" x="6.000000" y="5.000001" rx="10.000000" width="40.000000" height="40.000000" fill="#FFCC00" fill-opacity="1.000000"/>
	</g>
	<path id="Vector" d="M26 10C27.0356 10 27.875 10.8395 27.875 11.875L27.875 23.125L39.125 23.125C40.1606 23.125 41 23.9644 41 25C41 26.0356 40.1606 26.875 39.125 26.875L27.875 26.875L27.875 38.125C27.875 39.1606 27.0356 40 26 40C24.9644 40 24.125 39.1606 24.125 38.125L24.125 26.875L12.875 26.875C11.8395 26.875 11 26.0356 11 25C11 23.9644 11.8395 23.125 12.875 23.125L24.125 23.125L24.125 11.875C24.125 10.8395 24.9644 10 26 10Z" fill="#FFDF60" fill-opacity="1.000000" fill-rule="evenodd"/>
</svg>
