<svg width="30.000000" height="30.000000" viewBox="0 0 30 30" fill="none" xmlns="http://www.w3.org/2000/svg" xmlns:xlink="http://www.w3.org/1999/xlink">
	<desc>
			Created with Pixso.
	</desc>
	<defs>
		<clipPath id="clip1_282">
			<rect id="rating-rate-svgrepo-com 1" width="30.000000" height="30.000000" fill="white" fill-opacity="0"/>
		</clipPath>
	</defs>
	<rect id="rating-rate-svgrepo-com 1" width="30.000000" height="30.000000" fill="#FFFFFF" fill-opacity="0"/>
	<g clip-path="url(#clip1_282)">
		<path id="Vector" d="M21.5672 5.3288L17.6376 4.75784L15.8803 1.19705C15.5219 0.470886 14.4836 0.471313 14.1254 1.19705L12.3681 4.75784L8.43851 5.3288C7.63718 5.44522 7.31673 6.4328 7.89627 6.99771L10.7398 9.76944L10.0685 13.6831C9.93153 14.4811 10.7718 15.0914 11.4881 14.7146L15.0028 12.8669L18.5175 14.7146C19.2281 15.0883 20.0751 14.4873 19.9372 13.6831L19.2659 9.76944L22.1094 6.99771C22.6893 6.43246 22.3681 5.44522 21.5672 5.3288Z" fill="#FFCC00" fill-opacity="1.000000" fill-rule="nonzero"/>
		<path id="Vector" d="M7.05673 14.866L0.978455 14.866C0.43811 14.866 0 15.304 0 15.8444L0 28.369C0 28.9094 0.43811 29.3475 0.978455 29.3475L7.05673 29.3475C7.59709 29.3475 8.0352 28.9094 8.0352 28.369L8.0352 15.8444C8.0352 15.304 7.59709 14.866 7.05673 14.866Z" fill="#FFCC00" fill-opacity="1.000000" fill-rule="nonzero"/>
		<path id="Vector" d="M29.3618 19.1193C28.3026 17.7843 26.3589 17.5902 25.0578 18.6822L20.4222 22.5718C18.9692 22.5718 17.8153 22.5718 16.4861 22.5718L18.5918 20.8049C20.1938 19.4607 19.3169 16.7646 17.1341 16.7646L9.99213 16.7646L9.99213 28.4081C10.5134 28.8296 11.1664 29.0616 11.8376 29.0616L21.0074 29.0616C21.6963 29.0616 22.3663 28.8178 22.8942 28.375L28.9042 23.3324C30.1621 22.2767 30.3675 20.3868 29.3618 19.1193Z" fill="#FFCC00" fill-opacity="1.000000" fill-rule="nonzero"/>
	</g>
</svg>
