<svg xmlns="http://www.w3.org/2000/svg" width="30" height="30" viewBox="0 0 30 30" fill="none">
  <path d="M18.4061 10.1952C20.3442 9.04735 21.3134 8.47345 22.0251 8.88065C22.7369 9.28784 22.7197 10.4065 22.6857 12.6438L22.677 13.2225C22.6674 13.8583 22.6625 14.1761 22.781 14.4555C22.8995 14.7348 23.1279 14.944 23.5846 15.3624L24.0004 15.7433C25.6077 17.2156 26.4114 17.9518 26.223 18.7785C26.0346 19.6051 24.9789 19.9749 22.8676 20.7142L22.3214 20.9056C21.7214 21.1158 21.4214 21.2207 21.1912 21.4314C20.9611 21.6421 20.8269 21.9345 20.5584 22.5191L20.314 23.0515C19.3691 25.1092 18.8967 26.1381 18.0686 26.2419C17.2405 26.3456 16.605 25.4555 15.3341 23.6753L15.0054 23.2146C14.6442 22.7087 14.4636 22.4559 14.2029 22.3066C13.9422 22.1575 13.6309 22.129 13.0081 22.072L12.4413 22.0201C10.2501 21.8196 9.15445 21.7192 8.83102 20.9567C8.5076 20.1941 9.17055 19.2743 10.4964 17.4346L10.8395 16.9586C11.2162 16.4359 11.4046 16.1745 11.4737 15.8716C11.5427 15.5689 11.4845 15.2589 11.3681 14.6389L11.2622 14.0745C10.8527 11.8928 10.648 10.8019 11.2763 10.2269C11.9045 9.65188 12.9497 9.9735 15.04 10.6167L15.5809 10.7832C16.1749 10.966 16.4719 11.0573 16.7752 11.0193C17.0786 10.9814 17.354 10.8183 17.9047 10.4921L18.4061 10.1952Z" fill="#FFCC00"/>
  <path fill-rule="evenodd" clip-rule="evenodd" d="M11.2121 2.46208C11.5782 2.09597 12.1718 2.09597 12.5379 2.46208L15.0379 4.96208C15.404 5.3282 15.404 5.9218 15.0379 6.28791C14.6717 6.65402 14.0782 6.65402 13.7121 6.28791L11.2121 3.78791C10.846 3.4218 10.846 2.8282 11.2121 2.46208ZM4.33708 4.33708C4.7032 3.97097 5.2968 3.97097 5.66291 4.33708L8.78791 7.46208C9.15402 7.8282 9.15402 8.4218 8.78791 8.78791C8.4218 9.15402 7.8282 9.15402 7.46208 8.78791L4.33708 5.66291C3.97097 5.2968 3.97097 4.7032 4.33708 4.33708ZM15.5871 6.83708C15.9532 6.47097 16.5467 6.47097 16.9129 6.83708L17.5379 7.46208C17.904 7.8282 17.904 8.4218 17.5379 8.78791C17.1717 9.15402 16.5782 9.15402 16.2121 8.78791L15.5871 8.16291C15.221 7.7968 15.221 7.2032 15.5871 6.83708ZM1.83708 9.33708C2.2032 8.97097 2.7968 8.97097 3.16291 9.33708L3.78791 9.96208C4.15402 10.3282 4.15402 10.9218 3.78791 11.2879C3.4218 11.654 2.8282 11.654 2.46208 11.2879L1.83708 10.6629C1.47097 10.2968 1.47097 9.7032 1.83708 9.33708ZM4.96208 12.4621C5.3282 12.096 5.9218 12.096 6.28791 12.4621L8.16291 14.3371C8.52902 14.7032 8.52902 15.2967 8.16291 15.6629C7.7968 16.029 7.2032 16.029 6.83708 15.6629L4.96208 13.7879C4.59597 13.4217 4.59597 12.8282 4.96208 12.4621Z" fill="#FFCC00"/>
</svg>