<svg xmlns="http://www.w3.org/2000/svg" width="16" height="16" viewBox="0 0 16 16" fill="none">
  <path d="M14.2222 0H1.77778C1.30628 0 0.854097 0.187301 0.520699 0.520699C0.187301 0.854097 0 1.30628 0 1.77778V14.2222C0 14.6937 0.187301 15.1459 0.520699 15.4793C0.854097 15.8127 1.30628 16 1.77778 16H14.2222C14.6937 16 15.1459 15.8127 15.4793 15.4793C15.8127 15.1459 16 14.6937 16 14.2222V1.77778C16 1.30628 15.8127 0.854097 15.4793 0.520699C15.1459 0.187301 14.6937 0 14.2222 0ZM14.2222 14.2222H1.77778V1.77778H14.2222V14.2222ZM5.33333 12.4444H3.55556V3.55556H5.33333V12.4444ZM8.88889 12.4444H7.11111V6.22222H8.88889V12.4444ZM12.4444 12.4444H10.6667V8H12.4444V12.4444Z" fill="#ECECEC"/>
</svg>