<svg xmlns="http://www.w3.org/2000/svg" width="20" height="16" viewBox="0 0 20 16" fill="none">
  <path d="M4.10841 14.7569C3.14259 13.8731 2.37084 12.7984 1.84207 11.6008C1.3133 10.4032 1.03902 9.10886 1.03662 7.79973C1.03422 6.4906 1.30375 5.19525 1.82812 3.99573C2.3525 2.79621 3.1203 1.71867 4.08288 0.831392C4.54942 0.403158 3.85304 -0.290267 3.38847 0.133056C2.3192 1.10318 1.46519 2.2867 0.881552 3.60724C0.297913 4.92779 -0.00239193 6.35602 1.4347e-05 7.79979C0.00242063 9.24356 0.307485 10.6708 0.895523 11.9894C1.48356 13.308 2.34151 14.4886 3.41401 15.4552C3.88054 15.8805 4.57692 15.1871 4.10841 14.7608V14.7569Z" fill="#FAFAFA"/>
  <path d="M6.64247 11.434C6.1365 10.9727 5.73208 10.4111 5.45495 9.78493C5.17781 9.15879 5.03403 8.48182 5.03273 7.79709C5.03144 7.11235 5.17267 6.43485 5.44744 5.80766C5.7222 5.18047 6.1245 4.61734 6.62872 4.15407C7.09428 3.72485 6.39889 3.03143 5.93432 3.45966C5.33974 4.01469 4.8659 4.68627 4.54235 5.43252C4.2188 6.17877 4.05249 6.98368 4.05378 7.79705C4.05507 8.61042 4.22394 9.4148 4.54985 10.16C4.87576 10.9052 5.35173 11.5753 5.94807 12.1285C6.41362 12.5547 7.11 11.8613 6.64247 11.434Z" fill="#FAFAFA"/>
  <path d="M9.74613 9.01589C10.4209 9.01589 10.968 8.46885 10.968 7.79405C10.968 7.11924 10.4209 6.5722 9.74613 6.5722C9.07133 6.5722 8.52429 7.11924 8.52429 7.79405C8.52429 8.46885 9.07133 9.01589 9.74613 9.01589Z" fill="#FAFAFA"/>
  <path d="M15.3839 0.831345C16.3497 1.71509 17.1215 2.7898 17.6503 3.98739C18.179 5.18498 18.4533 6.47934 18.4557 7.78847C18.4581 9.09759 18.1886 10.393 17.6642 11.5925C17.1398 12.792 16.372 13.8695 15.4095 14.7568C14.9429 15.185 15.6393 15.8785 16.1039 15.4512C17.1725 14.4811 18.026 13.2978 18.6092 11.9777C19.1925 10.6575 19.4926 9.22972 19.4902 7.78644C19.4877 6.34317 19.1829 4.91642 18.5952 3.59819C18.0076 2.27997 17.1502 1.09953 16.0783 0.133009C15.6118 -0.292278 14.9154 0.401147 15.3839 0.827416V0.831345Z" fill="#FAFAFA"/>
  <path d="M12.8499 4.15409C13.3559 4.61545 13.7603 5.17707 14.0374 5.80321C14.3145 6.42935 14.4583 7.10632 14.4596 7.79106C14.4609 8.47579 14.3197 9.1533 14.0449 9.78048C13.7702 10.4077 13.3679 10.9708 12.8636 11.4341C12.3981 11.8633 13.0935 12.5567 13.558 12.1285C14.1526 11.5735 14.6265 10.9019 14.95 10.1556C15.2736 9.40937 15.4399 8.60446 15.4386 7.79109C15.4373 6.97772 15.2684 6.17334 14.9425 5.42812C14.6166 4.6829 14.1406 4.01282 13.5443 3.45969C13.0787 3.03342 12.3824 3.72684 12.8499 4.15409Z" fill="#FAFAFA"/>
</svg>