<svg width="30.000000" height="30.000046" viewBox="0 0 30 30" fill="none" xmlns="http://www.w3.org/2000/svg" xmlns:xlink="http://www.w3.org/1999/xlink">
	<desc>
			Created with Pixso.
	</desc>
	<defs/>
	<path id="XMLID_801_" d="M11.8096 2.45412C11.8096 3.80948 10.8561 4.90823 9.67981 4.90823C8.5036 4.90823 7.55005 3.80948 7.55005 2.45412C7.55005 1.09874 8.5036 0 9.67981 0C10.8561 0 11.8096 1.09874 11.8096 2.45412Z" fill="#498CF0" fill-opacity="1.000000" fill-rule="evenodd"/>
	<path id="XMLID_1188_" d="M29.8151 18.122L27.3989 14.2971C27.3435 14.2094 27.2773 14.1316 27.2023 14.0659L23.6487 10.9565C23.3777 10.7193 23.0332 10.6734 22.7355 10.7978C22.4742 10.8272 22.576 10.8048 19.9648 11.9536C19.6558 12.0896 19.4113 12.3352 19.2512 12.6371L20.7675 12.2619L17.4901 14.1646C14.4606 12.177 14.4265 12.0758 14.0195 12.1216C13.8262 11.9593 13.7586 11.9627 12.7864 11.6748L10.4592 10.9855L9.25287 6.99173L10.171 8.57144L10.3304 8.09053C10.6138 7.23512 10.2419 6.27699 9.49951 5.95033C6.89191 4.80309 6.98993 4.82373 6.72742 4.79442C6.4754 4.68945 6.18726 4.70415 5.93396 4.86464L1.99554 7.36148C1.81226 7.47768 1.66669 7.65944 1.58081 7.87924L0.0852661 11.7075C-0.133484 12.2675 0.0831299 12.9258 0.569092 13.1778C1.05475 13.4298 1.62616 13.1805 1.84503 12.6203L3.20831 9.13078L4.4118 8.36768L2.65277 13.8174C2.65277 13.8174 2.52954 15.184 1.90594 24.9803C1.86041 25.6937 2.32538 26.3145 2.94446 26.3669C2.94965 26.3674 2.95477 26.3672 2.9599 26.3676L1.09113 26.3676C0.844299 26.3676 0.644287 26.5981 0.644287 26.8825L0.644287 29.4852C0.644287 29.7695 0.844299 30 1.09113 30L10.3655 30C10.6123 30 10.8124 29.7695 10.8124 29.4852L10.8124 26.8825C10.8124 26.5981 10.6123 26.3676 10.3655 26.3676L8.69226 26.3676C9.29047 26.3383 9.76807 25.7719 9.76807 25.0753L9.76807 18.9757C9.76807 18.7292 9.70703 18.488 9.59222 18.2802L7.94287 15.2953L8.50824 13.5892C8.13562 13.2321 7.91565 12.7249 7.88519 12.3906L7.47443 7.86922L8.80652 12.2794C8.91254 12.6302 9.16382 12.8979 9.47766 12.9908C13.5776 14.2051 13.3134 14.1521 13.5446 14.1263C13.619 14.1885 13.3159 13.985 16.9847 16.3921C17.2682 16.5781 17.6135 16.583 17.8963 16.4188L21.5155 14.3177L19.7673 16.0053L21.162 20.2143L19.7065 21.5478C19.5149 21.7234 19.3782 21.9664 19.3173 22.2397L17.9501 28.379C17.7958 29.0718 18.1582 29.7777 18.7595 29.9554C19.3607 30.1332 19.9733 29.7157 20.1275 29.0229L21.4009 23.3047L23.7182 21.1816L24.1263 21.0021L23.7023 23.7837C23.6531 24.106 23.7117 24.4377 23.8661 24.7122L26.5062 29.4054C26.8439 30.0058 27.54 30.1767 28.0607 29.7878C28.5815 29.3987 28.7301 28.5967 28.3925 27.9965L25.9928 23.7305L26.5729 19.9257L25.335 15.2243L25.9221 15.7381L28.2548 19.4307C28.5684 19.9274 29.172 20.0366 29.6027 19.6753C30.0338 19.3138 30.1288 18.6184 29.8151 18.122ZM8.59589 26.3675L3.08014 26.3675C3.64026 26.3376 4.10577 25.8308 4.14795 25.1702L4.81195 14.7673L5.04205 14.8685L7.51996 19.353L7.51996 25.0752C7.52002 25.7718 7.99762 26.3382 8.59589 26.3675Z" fill="#498CF0" fill-opacity="1.000000" fill-rule="nonzero"/>
	<path id="XMLID_1189_" d="M21.9141 8.45741C21.9141 9.81277 20.9606 10.9115 19.7843 10.9115C18.6081 10.9115 17.6545 9.81277 17.6545 8.45741C17.6545 7.10204 18.6081 6.0033 19.7843 6.0033C20.9606 6.0033 21.9141 7.10204 21.9141 8.45741Z" fill="#498CF0" fill-opacity="1.000000" fill-rule="evenodd"/>
</svg>
