<svg width="185" height="22" viewBox="0 0 185 22" fill="none" xmlns="http://www.w3.org/2000/svg">
<path d="M14.56 10.668H20.3V18.956C19.1427 19.7587 17.7987 20.3747 16.268 20.804C14.7373 21.2333 13.2347 21.448 11.76 21.448C9.66933 21.448 7.79333 21.0187 6.132 20.16C4.47067 19.2827 3.164 18.0693 2.212 16.52C1.27867 14.952 0.812 13.1787 0.812 11.2C0.812 9.22133 1.27867 7.45733 2.212 5.908C3.164 4.34 4.48 3.12667 6.16 2.268C7.85867 1.39067 9.772 0.951999 11.9 0.951999C13.8227 0.951999 15.54 1.27867 17.052 1.932C18.5827 2.56667 19.852 3.5 20.86 4.732L16.632 8.456C15.4 7.01867 13.9347 6.3 12.236 6.3C10.78 6.3 9.62267 6.73867 8.764 7.616C7.90533 8.49333 7.476 9.688 7.476 11.2C7.476 12.6747 7.896 13.86 8.736 14.756C9.59467 15.652 10.7333 16.1 12.152 16.1C12.992 16.1 13.7947 15.9413 14.56 15.624V10.668ZM29.7795 5.404C32.4675 5.404 34.5209 6.01067 35.9395 7.224C37.3582 8.41867 38.0675 10.2667 38.0675 12.768V21H32.1875V18.984C31.4595 20.5147 30.0129 21.28 27.8475 21.28C26.6342 21.28 25.5982 21.0747 24.7395 20.664C23.8995 20.2347 23.2555 19.6653 22.8075 18.956C22.3782 18.228 22.1635 17.416 22.1635 16.52C22.1635 15.008 22.7422 13.86 23.8995 13.076C25.0569 12.292 26.8115 11.9 29.1635 11.9H31.7115C31.5062 10.7053 30.5449 10.108 28.8275 10.108C28.1369 10.108 27.4369 10.22 26.7275 10.444C26.0182 10.6493 25.4115 10.9387 24.9075 11.312L22.8915 7.14C23.7689 6.59867 24.8235 6.17867 26.0555 5.88C27.3062 5.56267 28.5475 5.404 29.7795 5.404ZM29.7515 17.472C30.1995 17.472 30.6009 17.3507 30.9555 17.108C31.3102 16.8653 31.5715 16.5013 31.7395 16.016V14.952H30.1715C28.8835 14.952 28.2395 15.3813 28.2395 16.24C28.2395 16.5947 28.3702 16.8933 28.6315 17.136C28.9115 17.36 29.2849 17.472 29.7515 17.472ZM61.0743 5.404C62.9223 5.404 64.397 5.97333 65.4983 7.112C66.6183 8.25067 67.1783 9.968 67.1783 12.264V21H60.8503V13.356C60.8503 11.6013 60.281 10.724 59.1423 10.724C58.545 10.724 58.0597 10.948 57.6863 11.396C57.3317 11.844 57.1543 12.5533 57.1543 13.524V21H50.8263V13.356C50.8263 11.6013 50.257 10.724 49.1183 10.724C48.521 10.724 48.0357 10.948 47.6623 11.396C47.3077 11.844 47.1303 12.5533 47.1303 13.524V21H40.8023V5.684H46.8223V7.112C47.961 5.97333 49.4077 5.404 51.1623 5.404C52.189 5.404 53.113 5.6 53.9343 5.992C54.7557 6.36533 55.4277 6.944 55.9503 7.728C56.5663 6.98133 57.313 6.412 58.1903 6.02C59.0677 5.60933 60.029 5.404 61.0743 5.404ZM86.4929 13.328C86.4929 13.4213 86.4649 13.916 86.4089 14.812H75.7689C75.9929 15.3907 76.3662 15.8387 76.8889 16.156C77.4115 16.4547 78.0649 16.604 78.8489 16.604C79.5209 16.604 80.0809 16.52 80.5289 16.352C80.9955 16.184 81.4995 15.8947 82.0409 15.484L85.3449 18.816C83.8515 20.4587 81.6209 21.28 78.6529 21.28C76.8049 21.28 75.1809 20.944 73.7809 20.272C72.3809 19.5813 71.2982 18.6293 70.5329 17.416C69.7675 16.2027 69.3849 14.84 69.3849 13.328C69.3849 11.7973 69.7582 10.4347 70.5049 9.24C71.2702 8.02667 72.3062 7.084 73.6129 6.412C74.9382 5.74 76.4222 5.404 78.0649 5.404C79.6142 5.404 81.0235 5.712 82.2929 6.328C83.5809 6.944 84.5982 7.84933 85.3449 9.044C86.1102 10.2387 86.4929 11.6667 86.4929 13.328ZM78.1209 9.716C77.4675 9.716 76.9262 9.89333 76.4969 10.248C76.0675 10.6027 75.7875 11.1067 75.6569 11.76H80.5849C80.4542 11.1253 80.1742 10.6307 79.7449 10.276C79.3155 9.90267 78.7742 9.716 78.1209 9.716ZM94.5098 7.336C95.6298 6.048 97.2818 5.404 99.4658 5.404V11.004C98.9618 10.9293 98.4952 10.892 98.0658 10.892C95.9005 10.892 94.8178 11.9933 94.8178 14.196V21H88.4898V5.684H94.5098V7.336ZM121.853 1.4L113.565 21H107.069L98.7805 1.4H105.893L110.569 12.852L115.357 1.4H121.853ZM137.489 13.328C137.489 13.4213 137.461 13.916 137.405 14.812H126.765C126.989 15.3907 127.362 15.8387 127.885 16.156C128.408 16.4547 129.061 16.604 129.845 16.604C130.517 16.604 131.077 16.52 131.525 16.352C131.992 16.184 132.496 15.8947 133.037 15.484L136.341 18.816C134.848 20.4587 132.617 21.28 129.649 21.28C127.801 21.28 126.177 20.944 124.777 20.272C123.377 19.5813 122.294 18.6293 121.529 17.416C120.764 16.2027 120.381 14.84 120.381 13.328C120.381 11.7973 120.754 10.4347 121.501 9.24C122.266 8.02667 123.302 7.084 124.609 6.412C125.934 5.74 127.418 5.404 129.061 5.404C130.61 5.404 132.02 5.712 133.289 6.328C134.577 6.944 135.594 7.84933 136.341 9.044C137.106 10.2387 137.489 11.6667 137.489 13.328ZM129.117 9.716C128.464 9.716 127.922 9.89333 127.493 10.248C127.064 10.6027 126.784 11.1067 126.653 11.76H131.581C131.45 11.1253 131.17 10.6307 130.741 10.276C130.312 9.90267 129.77 9.716 129.117 9.716ZM145.506 7.336C146.626 6.048 148.278 5.404 150.462 5.404V11.004C149.958 10.9293 149.491 10.892 149.062 10.892C146.897 10.892 145.814 11.9933 145.814 14.196V21H139.486V5.684H145.506V7.336ZM158.247 21.28C156.941 21.28 155.653 21.14 154.383 20.86C153.114 20.58 152.087 20.216 151.303 19.768L153.039 15.596C153.749 16.0253 154.589 16.3613 155.559 16.604C156.53 16.8467 157.473 16.968 158.387 16.968C159.115 16.968 159.619 16.912 159.899 16.8C160.198 16.6693 160.347 16.4827 160.347 16.24C160.347 15.9973 160.161 15.8293 159.787 15.736C159.433 15.6427 158.845 15.5493 158.023 15.456C156.773 15.3067 155.709 15.12 154.831 14.896C153.954 14.6533 153.179 14.196 152.507 13.524C151.854 12.852 151.527 11.8907 151.527 10.64C151.527 9.65067 151.826 8.764 152.423 7.98C153.021 7.196 153.907 6.57067 155.083 6.104C156.278 5.63733 157.706 5.404 159.367 5.404C160.525 5.404 161.654 5.516 162.755 5.74C163.875 5.94533 164.827 6.25333 165.611 6.664L163.875 10.836C162.531 10.0893 161.057 9.716 159.451 9.716C158.07 9.716 157.379 9.95867 157.379 10.444C157.379 10.6867 157.566 10.864 157.939 10.976C158.313 11.0693 158.901 11.1627 159.703 11.256C160.954 11.4053 162.009 11.6013 162.867 11.844C163.745 12.0867 164.51 12.544 165.163 13.216C165.835 13.888 166.171 14.8493 166.171 16.1C166.171 17.052 165.873 17.92 165.275 18.704C164.678 19.488 163.782 20.1133 162.587 20.58C161.393 21.0467 159.946 21.28 158.247 21.28ZM184.384 13.328C184.384 13.4213 184.356 13.916 184.3 14.812H173.66C173.884 15.3907 174.257 15.8387 174.78 16.156C175.302 16.4547 175.956 16.604 176.74 16.604C177.412 16.604 177.972 16.52 178.42 16.352C178.886 16.184 179.39 15.8947 179.932 15.484L183.236 18.816C181.742 20.4587 179.512 21.28 176.544 21.28C174.696 21.28 173.072 20.944 171.672 20.272C170.272 19.5813 169.189 18.6293 168.424 17.416C167.658 16.2027 167.276 14.84 167.276 13.328C167.276 11.7973 167.649 10.4347 168.396 9.24C169.161 8.02667 170.197 7.084 171.504 6.412C172.829 5.74 174.313 5.404 175.956 5.404C177.505 5.404 178.914 5.712 180.184 6.328C181.472 6.944 182.489 7.84933 183.236 9.044C184.001 10.2387 184.384 11.6667 184.384 13.328ZM176.012 9.716C175.358 9.716 174.817 9.89333 174.388 10.248C173.958 10.6027 173.678 11.1067 173.548 11.76H178.476C178.345 11.1253 178.065 10.6307 177.636 10.276C177.206 9.90267 176.665 9.716 176.012 9.716Z" fill="#FAFAFA"/>
</svg>
